PathFileType	4	(X/Y/Z) rotbonepin.trc
DataRate	CameraRate	NumFrames	NumMarkers	Units	OrigDataRate	OrigDataStartFrame	OrigNumFrames
100	100	26	11	mm	100	2361	3147
Frame#	Time	gu			centelbow			EpL			centpxt8			centijc7			ij			ts			ac			ai			acc			ijc
		X1	Y1	Z1	X2	Y2	Z2	X3	Y3	Z3	X4	Y4	Z4	X5	Y5	Z5	X6	Y6	Z6	X7	Y7	Z7	X8	Y8	Z8	X9	Y9	Z9  X10	Y10	Z10  X11	Y11	Z11
2360	23.6	327.849	21.27	16.026	467.302	-4.232	228.659	439.977	-8.907	238.019	349.814	-169.073	-110.198	330.455	25.043	-137.896	375.541	-6.639	-133.669	264.892	-49.043	-54.191	301.777	48.353	-7.687	341.549	-131.939	8.106	301.777	48.353	-7.687	375.541	-6.639	-133.669
2361	23.61	327.941	21.294	16.085	467.391	-4.315	228.706	440.052	-8.866	238.088	349.791	-169.091	-110.188	330.458	25.026	-137.897	375.539	-6.661	-133.664	264.728	-48.996	-54.211	301.751	48.326	-7.663	341.278	-132.028	8.038	301.751	48.326	-7.663	375.539	-6.661	-133.664
2362	23.62	328.105	21.323	16.207	467.379	-4.39	228.931	440.02	-8.819	238.312	349.748	-169.107	-110.181	330.433	25.012	-137.895	375.512	-6.679	-133.66	264.577	-48.93	-54.199	301.726	48.316	-7.591	341.01	-132.1	8.009	301.726	48.316	-7.591	375.512	-6.679	-133.66
2363	23.63	328.035	21.242	16.218	467.106	-4.78	229.037	439.723	-9.06	238.416	349.7	-169.114	-110.188	330.389	25.005	-137.901	375.467	-6.687	-133.666	264.402	-48.859	-54.185	301.69	48.308	-7.524	340.713	-132.172	7.981	301.69	48.308	-7.524	375.467	-6.687	-133.666
2364	23.64	327.755	21.051	16.089	466.752	-5.485	228.893	439.346	-9.575	238.291	349.674	-169.119	-110.217	330.355	25.001	-137.921	375.435	-6.689	-133.688	264.178	-48.795	-54.198	301.648	48.284	-7.501	340.361	-132.272	7.905	301.648	48.284	-7.501	375.435	-6.689	-133.688
2365	23.65	327.604	20.893	16.004	466.576	-6.146	228.762	439.149	-10.032	238.187	349.676	-169.124	-110.264	330.348	24.997	-137.949	375.428	-6.692	-133.721	263.97	-48.715	-54.24	301.646	48.264	-7.499	340.016	-132.375	7.784	301.646	48.264	-7.499	375.428	-6.692	-133.721
2366	23.66	327.757	20.876	16.117	466.537	-6.49	228.957	439.088	-10.201	238.386	349.693	-169.121	-110.317	330.35	25.003	-137.968	375.433	-6.684	-133.752	263.844	-48.596	-54.281	301.693	48.277	-7.461	339.75	-132.442	7.663	301.693	48.277	-7.461	375.433	-6.684	-133.752
2367	23.67	327.951	20.922	16.335	466.348	-6.683	229.394	438.871	-10.246	238.797	349.705	-169.097	-110.352	330.339	25.031	-137.963	375.426	-6.652	-133.756	263.739	-48.468	-54.299	301.72	48.303	-7.375	339.511	-132.486	7.576	301.72	48.303	-7.375	375.426	-6.652	-133.756
2368	23.68	327.844	20.875	16.438	465.877	-7.093	229.686	438.372	-10.493	239.068	349.695	-169.06	-110.343	330.303	25.07	-137.92	375.394	-6.606	-133.71	263.548	-48.373	-54.3	301.657	48.302	-7.28	339.188	-132.555	7.514	301.657	48.302	-7.28	375.394	-6.606	-133.71
2369	23.69	327.5	20.704	16.356	465.364	-7.796	229.643	437.837	-10.991	239.034	349.66	-169.04	-110.29	330.263	25.093	-137.85	375.355	-6.581	-133.627	263.272	-48.306	-54.306	301.539	48.273	-7.217	338.779	-132.655	7.444	301.539	48.273	-7.217	375.355	-6.581	-133.627
2370	23.7	327.319	20.528	16.268	465.117	-8.483	229.529	437.573	-11.457	238.945	349.606	-169.052	-110.235	330.242	25.084	-137.789	375.328	-6.595	-133.557	263.019	-48.24	-54.335	301.457	48.243	-7.189	338.397	-132.756	7.342	301.457	48.243	-7.189	375.328	-6.595	-133.557
2371	23.71	327.454	20.467	16.337	465.067	-8.883	229.67	437.505	-11.655	239.095	349.529	-169.094	-110.228	330.221	25.051	-137.763	375.299	-6.642	-133.534	262.869	-48.169	-54.372	301.452	48.219	-7.153	338.131	-132.845	7.23	301.452	48.219	-7.153	375.299	-6.642	-133.534
2372	23.72	327.556	20.486	16.444	464.839	-9.137	229.952	437.254	-11.723	239.363	349.415	-169.159	-110.271	330.153	24.997	-137.757	375.223	-6.708	-133.538	262.79	-48.105	-54.383	301.476	48.196	-7.069	337.941	-132.924	7.155	301.476	48.196	-7.069	375.223	-6.708	-133.538
2373	23.73	327.275	20.448	16.382	464.268	-9.594	230.019	436.663	-11.969	239.424	349.254	-169.238	-110.307	330.011	24.927	-137.74	375.078	-6.783	-133.527	262.672	-48.056	-54.382	301.452	48.163	-6.98	337.716	-133.008	7.104	301.452	48.163	-6.98	375.078	-6.783	-133.527
2374	23.74	326.797	20.312	16.225	463.648	-10.3	229.871	436.029	-12.429	239.295	349.063	-169.306	-110.345	329.819	24.866	-137.732	374.886	-6.845	-133.527	262.458	-48.026	-54.417	301.366	48.112	-6.954	337.397	-133.115	7.008	301.366	48.112	-6.954	374.886	-6.845	-133.527
2375	23.75	326.625	20.194	16.246	463.335	-10.905	229.912	435.705	-12.795	239.355	348.89	-169.364	-110.453	329.63	24.818	-137.763	374.7	-6.893	-133.581	262.206	-47.996	-54.494	301.28	48.049	-6.978	337.035	-133.243	6.846	301.28	48.049	-6.978	374.7	-6.893	-133.581
2376	23.76	326.876	20.204	16.531	463.258	-11.133	230.372	435.611	-12.835	239.8	348.743	-169.453	-110.642	329.479	24.747	-137.816	374.55	-6.967	-133.667	262.001	-47.941	-54.572	301.231	47.999	-6.973	336.71	-133.362	6.673	301.231	47.999	-6.973	374.55	-6.967	-133.667
2377	23.77	327.087	20.281	16.808	463.046	-11.164	230.903	435.379	-12.704	240.301	348.557	-169.574	-110.83	329.345	24.652	-137.852	374.407	-7.077	-133.725	261.844	-47.866	-54.618	301.183	47.972	-6.904	336.428	-133.448	6.552	301.183	47.972	-6.904	374.407	-7.077	-133.725
2378	23.78	326.831	20.273	16.768	462.573	-11.4	230.966	434.897	-12.747	240.365	348.299	-169.66	-110.952	329.168	24.589	-137.862	374.217	-7.159	-133.74	261.665	-47.801	-54.636	301.092	47.946	-6.811	336.126	-133.527	6.485	301.092	47.946	-6.811	374.217	-7.159	-133.74
2379	23.79	326.293	20.14	16.464	462.104	-11.978	230.553	434.432	-13.078	239.997	348.027	-169.666	-111.045	328.929	24.597	-137.879	373.972	-7.16	-133.765	261.429	-47.775	-54.652	300.968	47.887	-6.751	335.765	-133.639	6.426	300.968	47.887	-6.751	373.972	-7.16	-133.765
2380	23.8	326.009	20.005	16.264	461.892	-12.636	230.227	434.227	-13.483	239.718	347.82	-169.644	-111.172	328.682	24.626	-137.928	373.731	-7.125	-133.837	261.19	-47.776	-54.679	300.866	47.802	-6.723	335.402	-133.782	6.35	300.866	47.802	-6.723	373.731	-7.125	-133.837
2381	23.81	326.179	19.987	16.374	461.837	-13.105	230.411	434.167	-13.74	239.903	347.684	-169.679	-111.32	328.497	24.6	-137.974	373.555	-7.143	-133.911	261.017	-47.751	-54.704	300.814	47.741	-6.678	335.112	-133.897	6.269	300.814	47.741	-6.678	373.555	-7.143	-133.911
2382	23.82	326.436	20.016	16.613	461.621	-13.508	230.882	433.935	-13.955	240.34	347.549	-169.775	-111.432	328.364	24.519	-137.978	373.422	-7.226	-133.926	260.891	-47.679	-54.722	300.778	47.73	-6.604	334.878	-133.956	6.197	300.778	47.73	-6.604	373.422	-7.226	-133.926
2383	23.83	326.323	19.893	16.69	461.137	-14.19	231.104	433.443	-14.418	240.547	347.365	-169.834	-111.504	328.207	24.476	-137.951	373.26	-7.275	-133.901	260.728	-47.599	-54.737	300.699	47.729	-6.53	334.609	-134.002	6.133	300.699	47.729	-6.53	373.26	-7.275	-133.901
2384	23.84	325.873	19.571	16.567	460.653	-15.173	230.897	432.971	-15.135	240.374	347.164	-169.794	-111.568	327.997	24.526	-137.935	373.052	-7.225	-133.897	260.498	-47.555	-54.75	300.581	47.689	-6.468	334.262	-134.094	6.069	300.581	47.689	-6.468	373.052	-7.225	-133.897
2385	23.85	325.566	19.245	16.472	460.466	-16.028	230.64	432.804	-15.728	240.171	347.004	-169.721	-111.65	327.792	24.604	-137.953	372.854	-7.14	-133.94	260.272	-47.542	-54.768	300.483	47.609	-6.411	333.918	-134.229	5.984	300.483	47.609	-6.411	372.854	-7.14	-133.94
